<svg id="Capa_1" data-name="Capa 1" xmlns="http://www.w3.org/2000/svg" viewBox="0 0 200 200"><defs><style>.cls-1{fill:#fff;}</style></defs><title>conexion</title><path class="cls-1" d="M174.75,156.65a17.07,17.07,0,0,0,3.08-9.8v-3.37a17.18,17.18,0,1,0-34.35,0v3.37a17.11,17.11,0,0,0,3.07,9.79,20.51,20.51,0,0,0-16.22,8.79,20.54,20.54,0,0,0-16.23-8.79,17,17,0,0,0,3.08-9.79v-3.37a17.18,17.18,0,0,0-34.36,0v3.37a17,17,0,0,0,3.08,9.79,20.54,20.54,0,0,0-16.23,8.79,20.51,20.51,0,0,0-16.22-8.79,17.11,17.11,0,0,0,3.07-9.79v-3.37a17.18,17.18,0,1,0-34.35,0v3.37a17,17,0,0,0,3.08,9.79A20.57,20.57,0,0,0,5.32,177.17V191a3.7,3.7,0,0,0,3.7,3.7H191a3.7,3.7,0,0,0,3.7-3.7v-13.8A20.56,20.56,0,0,0,174.75,156.65ZM29.58,143.48a9.78,9.78,0,1,1,19.56,0v3.37a9.78,9.78,0,0,1-19.56,0ZM66,187.28H12.74V177.17A13.16,13.16,0,0,1,25.89,164h9.78V178.8a3.7,3.7,0,1,0,7.39,0V164h9.78A13.17,13.17,0,0,1,66,177.17Zm24.24-43.8a9.78,9.78,0,1,1,19.55,0v3.37a9.78,9.78,0,0,1-19.55,0Zm36.4,43.8H73.38V177.17A13.17,13.17,0,0,1,86.53,164h9.83V178.8a3.7,3.7,0,1,0,7.39,0V164h9.73a13.17,13.17,0,0,1,13.15,13.15Zm24.25-43.8a9.78,9.78,0,1,1,19.55,0v3.37a9.78,9.78,0,0,1-19.55,0Zm36.4,43.8H134V177.17A13.17,13.17,0,0,1,147.18,164h9.87V178.8a3.7,3.7,0,0,0,7.4,0V164h9.68a13.17,13.17,0,0,1,13.15,13.15ZM102.62,77.05A3.71,3.71,0,1,1,100,76,3.66,3.66,0,0,1,102.62,77.05ZM39.36,121.1a3.69,3.69,0,0,0,3.7-3.69v-4.84H96.31v4.84a3.7,3.7,0,0,0,7.4,0v-4.84h12.6a3.7,3.7,0,1,0,0-7.39h-12.6V96.3h37.93a3.7,3.7,0,0,0,3.7-3.69V81.52A27.39,27.39,0,0,0,118,54.16h-1.52A21.93,21.93,0,0,0,122,39.54V27.35a22,22,0,1,0-44,0V39.54a21.89,21.89,0,0,0,5.58,14.62H82.05A27.39,27.39,0,0,0,54.68,81.52V92.61a3.7,3.7,0,0,0,3.7,3.69H96.31v8.88H39.36a3.69,3.69,0,0,0-3.69,3.7v8.53A3.69,3.69,0,0,0,39.36,121.1Zm46-93.75a14.62,14.62,0,0,1,29.08-2.15L108,21.37a3.7,3.7,0,0,0-4.71.81,16.38,16.38,0,0,1-12.59,5.88H85.39v-.71Zm0,8.11h5.26a23.74,23.74,0,0,0,16.06-6.23l7.91,4.65v5.66a14.62,14.62,0,0,1-29.24,0V35.46ZM62.08,88.91V81.52a20,20,0,0,1,20-20H96.31v4.06a3.7,3.7,0,0,0,7.4,0V61.55H118a20,20,0,0,1,20,20v7.39Zm67.54,16.27a3.7,3.7,0,1,1-3.7,3.7,3.78,3.78,0,0,1,1.08-2.62A3.73,3.73,0,0,1,129.62,105.18Zm12,0h19.11a3.7,3.7,0,0,1,3.7,3.7v8.53a3.7,3.7,0,0,1-7.4,0v-4.84H141.64a3.7,3.7,0,1,1,0-7.39Z"/></svg>