<svg id="Capa_1" data-name="Capa 1" xmlns="http://www.w3.org/2000/svg" viewBox="0 0 200 200"><defs><style>.cls-1{fill:#fff;}</style></defs><title>estadisticas</title><path class="cls-1" d="M43.81,192.34a3.84,3.84,0,1,1-6.27,4.45l-5.78-8.15A3.84,3.84,0,0,1,38,184.19Zm38.06-28.58a56.58,56.58,0,0,0-24-35.54l-13.45-9a13.51,13.51,0,0,0-17.14,1.75V74.6a12.87,12.87,0,0,0-20.92-10,12.8,12.8,0,0,0-4.82,10v59.61A37.24,37.24,0,0,0,8.5,155.88l6.85,9.66a3.84,3.84,0,1,0,6.27-4.45l-6.85-9.66a29.55,29.55,0,0,1-5.5-17.22V74.61a5.19,5.19,0,0,1,10.37,0V121.9a26.89,26.89,0,0,0,6.92,18c.19.23.39.45.6.68l8.38,8.89,4,4.22,0,0,5.94,6.32a3.84,3.84,0,0,0,5.6-5.26l-9.71-10.33-8.81-9.38a.27.27,0,0,1-.07-.08,6.49,6.49,0,0,1,.13-8.5,5.79,5.79,0,0,1,7.56-1l13.45,9a48.94,48.94,0,0,1,20.71,30.74l6.3,30a3.85,3.85,0,0,0,3.76,3.06,3.61,3.61,0,0,0,.79-.09,3.83,3.83,0,0,0,3-4.55ZM30.05,173a3.85,3.85,0,0,0-6.26,4.47l0,0A3.84,3.84,0,0,0,30.07,173ZM193.6,64.57a12.86,12.86,0,0,0-20.92,10v46.32a13.52,13.52,0,0,0-17.15-1.75l-13.45,9a56.57,56.57,0,0,0-23.94,35.54l-6.3,30a3.83,3.83,0,0,0,3,4.55,3.61,3.61,0,0,0,.79.09,3.85,3.85,0,0,0,3.76-3.06l6.3-30a48.92,48.92,0,0,1,20.71-30.74l13.45-9a5.82,5.82,0,0,1,7.57,1,6.49,6.49,0,0,1,.13,8.49l-.07.09-18.53,19.71a3.85,3.85,0,0,0,5.61,5.26c.05-.06,15.76-16.76,18.31-19.46.21-.22.4-.45.6-.68a26.9,26.9,0,0,0,6.92-18V74.61a5.19,5.19,0,0,1,10.37,0v59.6a29.53,29.53,0,0,1-5.5,17.22l-29,40.92a3.84,3.84,0,0,0,.91,5.36,3.9,3.9,0,0,0,2.22.71,3.85,3.85,0,0,0,3.14-1.62l29-40.92a37.24,37.24,0,0,0,6.91-21.67V74.61A12.78,12.78,0,0,0,193.6,64.57Zm-79.89,58.37a3.85,3.85,0,0,1,0-7.69h4.36v-8a3.85,3.85,0,1,1,7.69,0v8h7.6v-10a15.9,15.9,0,0,0-12.25-15.53l-10.52-2.51-7,16a3.84,3.84,0,0,1-3.52,2.3h0a3.83,3.83,0,0,1-3.52-2.3L89.44,87.21,78.89,89.74a15.92,15.92,0,0,0-12.25,15.53v10h7.61v-8a3.85,3.85,0,1,1,7.69,0v7.94h4a3.85,3.85,0,0,1,0,7.69H62.8A3.85,3.85,0,0,1,59,119.09V105.26c0-.47,0-.94,0-1.4H41.33A3.84,3.84,0,0,1,37.49,100V92.83A18,18,0,0,1,51.36,75.26l6.84-1.64V72.4a17.18,17.18,0,0,1-7.36-14.1V49.41a17.19,17.19,0,0,1,28.41-13,22.44,22.44,0,0,1,41.6,0,17.19,17.19,0,0,1,28.37,13.08v8.89a17.22,17.22,0,0,1-7.36,14.1v1.22l6.84,1.64a18,18,0,0,1,13.87,17.57V100a3.85,3.85,0,0,1-3.85,3.85H141c0,.47.05.94.05,1.42V119.1a3.84,3.84,0,0,1-3.85,3.84Zm9.56-77.29a28,28,0,0,0,12.89,3.14h5.34a9.51,9.51,0,0,0-18.23-3.14Zm-.78,12.66a9.52,9.52,0,0,0,19,0V56.48h-5.37a35.78,35.78,0,0,1-13.65-2.72v3.42c0,.19,0,.38,0,.56v.57ZM85.29,45.44h5.25a16.59,16.59,0,0,0,12.73-5.94,3.84,3.84,0,0,1,4.89-.84l6.47,3.8a14.76,14.76,0,0,0-29.34,2.35ZM58.55,48.79h5.34a28,28,0,0,0,12.89-3.14,9.51,9.51,0,0,0-18.23,3.14Zm0,9.52a9.52,9.52,0,0,0,19,0V53.76a35.73,35.73,0,0,1-13.67,2.72H58.53ZM79,81.8l-5.73-1.37a3.76,3.76,0,0,1-1.37-.55,3.86,3.86,0,0,1-1.75-3.23V75.38a16.72,16.72,0,0,1-2.14.14,17,17,0,0,1-2.16-.14v1.29a3.85,3.85,0,0,1-3,3.74l-9.79,2.33a10.36,10.36,0,0,0-8,10.1v3.33H60.77A23.57,23.57,0,0,1,77.1,82.27ZM87.82,76a22.61,22.61,0,0,1-6.62-6.63,17.23,17.23,0,0,1-3.33,3v1.19l6.87,1.65a18.29,18.29,0,0,1,3.08,1Zm16.7,3.2a22.78,22.78,0,0,1-9,0v2.74L100,92.18,104.52,82ZM114.8,57.75V51.48l-7.93-4.66a24.23,24.23,0,0,1-16.33,6.31H85.28v4.06a14.77,14.77,0,0,0,29.52.56Zm.51,17.51,6.86-1.65V72.42a17.48,17.48,0,0,1-3.3-3,22.7,22.7,0,0,1-6.67,6.64v.26A18.65,18.65,0,0,1,115.31,75.26Zm23.93,20.91h15.63V92.84a10.35,10.35,0,0,0-8-10.1l-9.79-2.33a3.85,3.85,0,0,1-3-3.74v-1.3a17.16,17.16,0,0,1-2.16.14,16.72,16.72,0,0,1-2.14-.14v1.27a3.86,3.86,0,0,1-1.75,3.23,3.59,3.59,0,0,1-1.39.55L121,81.81l1.93.46A23.6,23.6,0,0,1,139.24,96.17ZM100,115.25a3.82,3.82,0,0,0-3.84,3.85,3.86,3.86,0,0,0,1.12,2.72,3.85,3.85,0,1,0,2.72-6.57ZM100,15a3.84,3.84,0,0,0,3.84-3.85V5.43a3.85,3.85,0,1,0-7.69,0v5.75A3.86,3.86,0,0,0,100,15ZM80.41,19.57a3.85,3.85,0,0,0,5.43-5.45l-4-4a3.85,3.85,0,0,0-5.44,5.44Zm36.41,1.2a3.85,3.85,0,0,0,2.72-1.13l4-4a3.85,3.85,0,0,0-5.44-5.44l-4,4a3.84,3.84,0,0,0,2.72,6.56Z"/></svg>