<svg id="Capa_1" data-name="Capa 1" xmlns="http://www.w3.org/2000/svg" viewBox="0 0 200 200"><defs><style>.cls-1{fill:#fff;}</style></defs><title>grupotrabajo</title><path class="cls-1" d="M58.5,107.05H46.58a3,3,0,0,1-3-3V84.89A5.39,5.39,0,0,1,49,79.5h7.18a5.39,5.39,0,0,1,5.39,5.39h0V104a3,3,0,0,1-3,3Z"/><path class="cls-1" d="M103.5,107.05h-12a3,3,0,0,1-3-3V72.75A5.39,5.39,0,0,1,94,67.36h7.13a5.39,5.39,0,0,1,5.39,5.39h0V104A3,3,0,0,1,103.5,107.05Z"/><path class="cls-1" d="M81,107.05H69.2a3,3,0,0,1-3-3V55.94a5.39,5.39,0,0,1,5.35-5.43h7.17a5.39,5.39,0,0,1,5.39,5.39V104a3,3,0,0,1-2.92,3Z"/><path class="cls-1" d="M9.77,131A1.79,1.79,0,0,1,8,129.2V117.7H128.88l.77-.64a22.81,22.81,0,0,1-5.52-4.24,6.87,6.87,0,0,1-.51-.81H7.86V36.12A1.78,1.78,0,0,1,9.6,34.29H140.51a1.79,1.79,0,0,1,1.79,1.78V50A34.48,34.48,0,0,1,148,48.09V36.2a7.64,7.64,0,0,0-7.59-7.64H9.77A7.64,7.64,0,0,0,2.18,36.2v93a7.59,7.59,0,0,0,7.59,7.6H60.71v12.74a9.22,9.22,0,0,1-9.17,9.21h-1.7a2.89,2.89,0,0,0,0,5.77H100.1a2.89,2.89,0,1,0,0-5.77H98.4a9.22,9.22,0,0,1-9.21-9.21V136.8H114c1-1.91,2.08-3.86,3.26-5.81Zm53.74,27.89a15.21,15.21,0,0,0,3.14-9.22V136.93H83.38v12.73a15,15,0,0,0,3.18,9.22Z"/><path class="cls-1" d="M129.86,97.11l.38,1.36a7.78,7.78,0,0,1,.42,2.29h0s-.84,1.53-1.82,3.15l-.42.76a2.91,2.91,0,0,0,.42,3.52,19.48,19.48,0,0,0,10.1,5.56h.72a3.05,3.05,0,0,0,.77-6,16.54,16.54,0,0,1-5.48-2.29,16.11,16.11,0,0,0,1.66-3.48,9.27,9.27,0,0,0,0-1.49A14,14,0,0,0,136,96.6l-.38-1.44a7.87,7.87,0,0,0-.47-1.65c-.13-.56,0-.34,0-.47a24.94,24.94,0,0,1-2.25-9.72,23.39,23.39,0,1,1,46.69-2.82,22.11,22.11,0,0,1,0,2.82,24.34,24.34,0,0,1-2.29,10.31c-.34,1.06-.63,2.13-.93,3.14a13.92,13.92,0,0,0-.64,4,9.27,9.27,0,0,0,0,1.49v.42a17.49,17.49,0,0,0,1.53,3.06,14.76,14.76,0,0,1-4,1.91,3,3,0,0,0-2,3.68l0,.1a3.06,3.06,0,0,0,3.82,2,18.17,18.17,0,0,0,8.49-5,2.91,2.91,0,0,0,.38-3.52l-.42-.77c-.38-.63-1.44-2.41-1.78-3.09v-.22a8.51,8.51,0,0,1,.38-2.29c.3-1,.59-2,.76-2.71a29.84,29.84,0,0,0,2.68-12.44,29.46,29.46,0,0,0-58.88-2.24c0,.75,0,1.49,0,2.24a31.27,31.27,0,0,0,2.51,12.18Z"/><path class="cls-1" d="M172.31,117.79a3.41,3.41,0,0,0-3.31.34,23.73,23.73,0,0,1-12.74,4,25,25,0,0,1-12.73-4.25,3,3,0,0,0-3.1,0h0c-18.81,9.34-26.62,34.38-25,39.26a3.28,3.28,0,0,0,1.14,1.58,76.44,76.44,0,0,0,40,12.73,71.73,71.73,0,0,0,39.94-13,3.51,3.51,0,0,0,1.11-1.57C199.13,152.25,191.32,127.17,172.31,117.79ZM171.08,124a35.39,35.39,0,0,1,4.75,3.31l-9,9.6-6.28-9.09A31.51,31.51,0,0,0,171.08,124Zm-29.72,0a31.57,31.57,0,0,0,10.4,3.82l-6.15,9.09-8.79-9.6A35.13,35.13,0,0,1,141.36,124Zm14.77,41.43a70.36,70.36,0,0,1-35.36-10.86,51.48,51.48,0,0,1,12.74-24.37l10.57,11.5a2,2,0,0,0,1.57.73h0a2.29,2.29,0,0,0,1.61-.94l8.7-12.73,8.75,12.73a2.12,2.12,0,0,0,1.57.94h0a2.12,2.12,0,0,0,1.57-.73l10.57-11.5a51.33,51.33,0,0,1,12.73,24.37,65.62,65.62,0,0,1-34.85,10.86Z"/><path class="cls-1" d="M166.32,72.45a2.12,2.12,0,0,0-2.08-1,2.09,2.09,0,0,0-1.7,1.57c-2.67,11.89-10.52,12.74-17,13.12-3.69.3-7.89.68-7.89,4.75,0,10.23,8.23,22.63,18.46,22.63s18.51-12.4,18.51-22.63C174.81,87.82,168.87,77,166.32,72.45Zm-10,37c-7.64,0-14.43-10.35-14.47-18.55a13.92,13.92,0,0,1,4.24-.72c5.65-.46,14.65-1.27,19-11.54a66.07,66.07,0,0,1,5.69,12.31C170.74,99,163.94,109.42,156.3,109.42Z"/></svg>