<svg id="Capa_1" data-name="Capa 1" xmlns="http://www.w3.org/2000/svg" viewBox="0 0 200 200"><defs><style>.cls-1{fill:#fff;}</style></defs><title>grupomanos</title><path class="cls-1" d="M128.83,3.33H71A23.27,23.27,0,0,0,47.77,26.65V173.48A23.23,23.23,0,0,0,71,196.67h57.83a23.23,23.23,0,0,0,23.4-23.06V26.78a23.23,23.23,0,0,0-23-23.45ZM145,173.48a16.13,16.13,0,0,1-16.13,16.13H71a16.17,16.17,0,0,1-16.18-16.13v-9.21H145Zm0-16.27H54.82V40H145Zm0-124.48H54.82V26.78A16.17,16.17,0,0,1,71,10.61h57.83A16.17,16.17,0,0,1,145,26.78h0Z"/><path class="cls-1" d="M112.3,20.08H87.57a3.53,3.53,0,1,0,0,7.06H112.3a3.53,3.53,0,0,0,0-7.06Z"/><path class="cls-1" d="M72.49,21.1a3.23,3.23,0,0,0-1.14-.75,3.58,3.58,0,0,0-2.69,0,3.93,3.93,0,0,0-1.15.75,3.46,3.46,0,0,0-1,2.51,3.51,3.51,0,0,0,5.94,2.53l0-.06a3,3,0,0,0,.8-1.15,3.53,3.53,0,0,0,.26-1.32,3.47,3.47,0,0,0-.26-1.23A3,3,0,0,0,72.49,21.1Z"/><path class="cls-1" d="M99.91,186.53a9.79,9.79,0,1,0-9.74-9.88,9.78,9.78,0,0,0,9.74,9.88Zm0-15.12a5.38,5.38,0,1,1-5.33,5.42v-.18A5.37,5.37,0,0,1,99.91,171.41Z"/></svg>