<svg id="Capa_1" data-name="Capa 1" xmlns="http://www.w3.org/2000/svg" viewBox="0 0 200 200"><defs><style>.cls-1{fill:#fff;}</style></defs><title>grupo</title><path class="cls-1" d="M114.39,106.79h-.2a3.52,3.52,0,0,0-3.28.37,23.63,23.63,0,0,1-12.65,4.1,24.74,24.74,0,0,1-12.85-4.1,3.28,3.28,0,0,0-3.24,0c-18.79,9.3-26.61,34.31-24.93,39.19a3.45,3.45,0,0,0,1.1,1.51,76.27,76.27,0,0,0,39.92,12.82,71.27,71.27,0,0,0,40-12.9,3.53,3.53,0,0,0,1.11-1.56C141,141,133.19,116,114.39,106.79Zm-1.39,6.1a31.65,31.65,0,0,1,5,3.49l-7.54,9.37L103,116.58a31.9,31.9,0,0,0,10-3.77Zm-8.6,12.29-6,7.29v0l-6-7.29,6.1-7.45ZM83.56,112.89a31.41,31.41,0,0,0,10,3.73l-7.49,9.13-7.65-9.46a36.23,36.23,0,0,1,5.11-3.48ZM63.09,143.36a50.44,50.44,0,0,1,12.45-24.28l8.88,11.13a2.52,2.52,0,0,0,1.68.78,2.17,2.17,0,0,0,1.64-.78l1.68-2,4.5,5.44-11,18.22A62.93,62.93,0,0,1,63,143.28Zm35.25,10.85a60.41,60.41,0,0,1-11-1.23l11-18.1,11.14,18.22a62,62,0,0,1-11.22,1Zm15.52-2.09L102.6,133.78l4.51-5.45,1.72,2a2,2,0,0,0,1.63.78h0a2.18,2.18,0,0,0,1.64-.78l8.93-11.3a51.08,51.08,0,0,1,12.53,24.07A61.08,61.08,0,0,1,113.78,152Z"/><path class="cls-1" d="M98.3,106.38c15.73,0,28.38-19,28.38-34.76a28.42,28.42,0,0,0-56.79-2.15c0,.72,0,1.43,0,2.15C69.89,87.35,82.54,106.38,98.3,106.38Zm22.32-34.76V73c-6.31-2.29-8.81-14-9.66-19.77A22.32,22.32,0,0,1,120.62,71.62ZM76,71.62A22.4,22.4,0,0,1,98.3,49.47a21.81,21.81,0,0,1,7.7,1.44A31.45,31.45,0,0,1,90.56,71.38,20.78,20.78,0,0,1,76,73.83C76,72.93,76,72.28,76,71.62Zm3.64,6.76A28,28,0,0,0,92.53,74.9a34.72,34.72,0,0,0,15.11-16.05c1.64,7.16,5.16,16.38,12.28,18.42-2.41,11.3-11.54,23.06-21.66,23.06S79.51,89.19,76.81,78.13A19.94,19.94,0,0,0,79.59,78.38Z"/><path class="cls-1" d="M142,74.49l.33,1.1a8.25,8.25,0,0,1,.33,1.85h0c-.19.41-.69,1.27-1.48,2.58l-.37.61a2.46,2.46,0,0,0,.33,2.91,16.4,16.4,0,0,0,8.19,4.5,1.57,1.57,0,0,0,.61,0,2.46,2.46,0,0,0,.62-4.87,13.62,13.62,0,0,1-4.46-1.88,13.06,13.06,0,0,0,1.31-2.87,6.32,6.32,0,0,0,0-1.23,11.58,11.58,0,0,0-.5-3.15l-.32-1.19a5.8,5.8,0,0,0-.41-1.35v-.41a20.3,20.3,0,0,1-1.76-8.19,19.12,19.12,0,1,1,36.36,8.72l-.74,2.58a11.5,11.5,0,0,0-.53,3.24,6.32,6.32,0,0,0,0,1.23,1.09,1.09,0,0,0,0,.36,13.66,13.66,0,0,0,1.27,2.5,12,12,0,0,1-3.32,1.56,2.5,2.5,0,0,0,1,4.89,3,3,0,0,0,.45-.14,15,15,0,0,0,6.84-4.1,2.53,2.53,0,0,0,.37-2.9l-.37-.62c-.33-.53-1.19-2-1.47-2.54v-.2a5.48,5.48,0,0,1,.32-1.84c.21-.86.45-1.68.62-2.22a24.07,24.07,0,1,0-43.89-.24Z"/><path class="cls-1" d="M176.71,91.36a2.83,2.83,0,0,0-2.66.28,19.3,19.3,0,0,1-10.4,3.28,20.34,20.34,0,0,1-10.52-3.36,2.47,2.47,0,0,0-2.54-.2h0a40.65,40.65,0,0,0-18,20.68c1.27,1.47,2.46,3,3.57,4.5a44.15,44.15,0,0,1,9.17-15.07l8.47,9.42a1.71,1.71,0,0,0,1.27.57h0a1.77,1.77,0,0,0,1.31-.74l7.13-10.31,7.24,10.48a2,2,0,0,0,1.31.74h0a1.85,1.85,0,0,0,1.31-.58l8.64-9.41a41.55,41.55,0,0,1,10.44,19.94,53.88,53.88,0,0,1-28.94,8.88,59,59,0,0,1-22.6-5.36q1.66,3,3,6.26a63.33,63.33,0,0,0,19.89,4.1,58.8,58.8,0,0,0,32.76-10.53,2.84,2.84,0,0,0,.9-1.31C198.66,119.57,192.27,99.06,176.71,91.36ZM154.93,107l-7.25-7.86a29,29,0,0,1,4.1-2.66,26.11,26.11,0,0,0,8.47,3.07Zm17.48,0-5.16-7.41a26.48,26.48,0,0,0,8.48-3.11,25.36,25.36,0,0,1,4.09,2.66Z"/><path class="cls-1" d="M62.64,114c1.15-1.39,2.38-2.74,3.65-4.09a39.44,39.44,0,0,0-17-18.55h0a2.89,2.89,0,0,0-2.7.29A19,19,0,0,1,36.19,95,20,20,0,0,1,25.71,91.6a2.81,2.81,0,0,0-2.7,0C7.57,99.26,1.18,119.73,2.54,123.75A2.73,2.73,0,0,0,3.48,125,62.46,62.46,0,0,0,36.23,135.5a57.64,57.64,0,0,0,16.38-2.67,57,57,0,0,1,2.33-6,55.47,55.47,0,0,1-15.68,3.56l8.68-17.89a1.73,1.73,0,0,0-.69-2.26l-3.53-2,7.37-9.58A39.71,39.71,0,0,1,62.64,114ZM7.12,121.45a40.92,40.92,0,0,1,14-22.84l7.37,9.54-3.52,2a1.72,1.72,0,0,0-.65,2.25L33,130.34A58.6,58.6,0,0,1,7.12,121.45Zm27.23,4.1L28,112.44l3.81-2.25a1.74,1.74,0,0,0,.86-1.14,1.89,1.89,0,0,0-.33-1.4L23.91,96.52h0a25.72,25.72,0,0,0,10.23,3.27c.17,7.86.25,19.29.21,25.59Zm5.4-17.9a1.73,1.73,0,0,0,.31,2.42l.18.12,3.81,2.25-6.22,13.31V100a26.09,26.09,0,0,0,10.4-3.36h0Z"/><path class="cls-1" d="M16.42,76.62C18.22,80.22,24.6,91,36.11,91S54,80.22,55.8,76.62a9.52,9.52,0,0,0,5-6.68,12,12,0,0,0-.94-10.72,8.15,8.15,0,0,0-1.6-1.56,22.89,22.89,0,0,0-44.34,0A6.71,6.71,0,0,0,12.2,59.3a11.94,11.94,0,0,0-.94,10.64A9.28,9.28,0,0,0,16.42,76.62Zm0-14.21a2.12,2.12,0,0,1,1.43-.82h0a.49.49,0,0,0,.57-.39v0a17.57,17.57,0,0,1,34.89,0,.53.53,0,0,0,.61.41,2,2,0,0,1,1.47.82c.58.78,1.07,2.46,0,6-.49,1.72-1.47,3.73-3.07,3.28a.48.48,0,0,0-.61.28c-2.66,6.8-8.64,13.64-15.89,13.64S22.56,78.75,19.9,71.91a.55.55,0,0,0-.5-.33h0c-1.59.53-2.62-1.51-3.11-3.23-.9-3.48-.41-5.16.17-5.94Z"/></svg>