<svg id="Capa_1" data-name="Capa 1" xmlns="http://www.w3.org/2000/svg" viewBox="0 0 200 200"><defs><style>.cls-1{fill:#fff;}</style></defs><title>mundo</title><path class="cls-1" d="M178.68,51.31a19.46,19.46,0,1,0-18.76-14.18,3.47,3.47,0,0,0,6.66-1.88,12.55,12.55,0,1,1,15.47,8.69,12.84,12.84,0,0,1-3.21.47,12.28,12.28,0,0,1-7.72-2.66h-.33a3.83,3.83,0,0,0-.69-.37h-2.21l-.65.21-.58.36-.37.25L148.07,60.1A58.32,58.32,0,0,0,49,86.34h0l-.29,1.27a3.47,3.47,0,0,0,2.66,4.09h.73A3.46,3.46,0,0,0,55.44,89l.25-1.1h0a51.54,51.54,0,1,1-1.43,14.46,3.36,3.36,0,0,0-2.13-3h0a3.66,3.66,0,0,0-.81,0h-.53l-13.66-.12H36l-.61.28-.49.33a3.05,3.05,0,0,0-.49.53l-.33.45a3.66,3.66,0,0,0-.29.78v.33a12.57,12.57,0,0,1-12.67,10.79A12.55,12.55,0,1,1,32.43,94.19a3.48,3.48,0,1,0,6.43-2.65,3.43,3.43,0,0,0-.34-.62A19.46,19.46,0,1,0,21,119.53h.33A19.45,19.45,0,0,0,40,105.8h7.81a58.3,58.3,0,0,0,95.77,38.71l11.32,13.16a19.25,19.25,0,0,0-3,9.24A19.49,19.49,0,0,0,170,187.59h1.27a19.46,19.46,0,0,0,1.23-38.91,19.82,19.82,0,0,0-5.32.4,3.58,3.58,0,0,0,1.31,7,12.82,12.82,0,0,1,3.44-.25,12.55,12.55,0,1,1-13.33,11.73,12.23,12.23,0,0,1,3.15-7.52v-.33a3.4,3.4,0,0,0,.41-.69,4.68,4.68,0,0,0,0-.53,2.9,2.9,0,0,0,0-1.31,4.09,4.09,0,0,0,0-.7,3.25,3.25,0,0,0-.33-.57c-.06-.14-.13-.28-.2-.41l-13.21-15.49a58,58,0,0,0,4.09-74.51l16.76-16.35A19.29,19.29,0,0,0,178.68,51.31Z"/><circle class="cls-1" cx="178.68" cy="31.86" r="6.7"/><circle class="cls-1" cx="171.16" cy="168.4" r="6.7"/><circle class="cls-1" cx="21.24" cy="100.25" r="6.7"/><path class="cls-1" d="M73.84,129.34c0,9.4,23.54,10.38,33.68,10.38a95.76,95.76,0,0,0,19.7-1.75c2.78-.62,11.2-2.5,11.2-8.63a33.48,33.48,0,0,0-15.82-27.1,22.4,22.4,0,1,0-32.7,0A33.38,33.38,0,0,0,73.84,129.34Zm32.29-57.79A15.49,15.49,0,1,1,90.84,87.24v-.32a15.53,15.53,0,0,1,15.29-15.33Zm-11.2,35.8a3.15,3.15,0,0,0,.69-.45,22.25,22.25,0,0,0,20.77,0A26.07,26.07,0,0,1,131.51,129c-.94.94-5.88,3.19-19,3.72-16,.66-29.31-1.88-31.76-4.08A25.65,25.65,0,0,1,94.93,107.35Z"/></svg>