<svg id="Capa_1" data-name="Capa 1" xmlns="http://www.w3.org/2000/svg" viewBox="0 0 200 200"><defs><style>.cls-1{fill:#fff;}</style></defs><title>telefono</title><path class="cls-1" d="M52.71,140.07h0A74.81,74.81,0,0,0,155.51,31.9l14-14.1a4.38,4.38,0,0,0,0-6.2h0a4.34,4.34,0,0,0-6.13,0l0,0-14,14.09a74.24,74.24,0,0,0-22.24-13.36,29.28,29.28,0,0,1,1.56,9.24,31.54,31.54,0,0,1-1.51,8.93,26.13,26.13,0,0,1,16.08,2.08l-1.52,1.52-.52.36L125.49,50.12l-.37-.37-4.69-4.7q-2.28,4-4.7,7.63l3.13,3.13.47.47L99.7,76l-.89-1L80,56.07C81.11,55,82.31,54,83.46,53c-1.51-2.4-3-5.22-4.44-7.73-1.77,1.52-3.49,3-5.22,4.65L56.21,32.37a65.67,65.67,0,0,1,15.24-9.92V20.88a27.66,27.66,0,0,1,1.47-8.51A74.65,74.65,0,0,0,42,129.42h0l2,2.4L27.81,148.06a4.44,4.44,0,0,0,0,6.21,4.34,4.34,0,0,0,6.13,0l0,0,3.08-3.08a90.71,90.71,0,0,0,66.56,26.94v7.42H90a16.9,16.9,0,0,0-15.66,11.12h67.35a18.5,18.5,0,0,0-.89-2h0a16.92,16.92,0,0,0-14.93-9H112.33V171.19a2.18,2.18,0,0,0-2.18-2.2h-.22a82.21,82.21,0,0,1-66.62-24l7-7Zm6.47-7.46h0L57,131.51l17.34-17.39,14.77,14.73c-11.74,5.06-22.4,6.47-30,3.7ZM73,142.42a70.58,70.58,0,0,0,22.66-7.1l12.21,12.17A66.73,66.73,0,0,1,73,142.37Zm45.16,3.34-14.46-14.62a126.92,126.92,0,0,0,22.34-17l17.6,17.55A66.1,66.1,0,0,1,118.13,145.76Zm31.64-20-17.6-17.55a127.61,127.61,0,0,0,17-22.34l14.46,14.41a66.07,66.07,0,0,1-13.83,25.27Zm10.44-70.64a66.38,66.38,0,0,1,5.22,34.77L153.26,77.74a71.8,71.8,0,0,0,7-22.82ZM147.42,40.93l.36-.52,1.52-1.52c4.23,7.57,3,19.32-2.56,32.21L132.33,56.75l-.37-.37Zm-21.57,21.3.47.47L142.67,79A119.29,119.29,0,0,1,126,101.65L107.16,83.11l-.94-.94Zm-25.79,26.1,1,1L119.69,108a116.1,116.1,0,0,1-22.5,16.86L81.9,109.22l-1.52-1.52ZM74,62.23,92.65,80.87l1,1L74.06,101.59l-1.35-1.35L57.41,85A116.64,116.64,0,0,1,74,62.23Zm-23.7-23.6L67.85,56.17a127.69,127.69,0,0,0-17,22.35L36.42,64.11A66.18,66.18,0,0,1,50.26,38.63Zm-10.5,70.59a66.8,66.8,0,0,1-5.22-34.83L46.6,86.56A71,71,0,0,0,39.76,109.22Zm9.92,14h0c-2.87-7.57-1.41-18.22,3.66-29.81l14.77,14.72L50.78,125.51a19,19,0,0,1-.89-1.88Z"/><circle class="cls-1" cx="101.05" cy="21.8" r="4.7"/><path class="cls-1" d="M119,22.66A19.11,19.11,0,0,0,100.31,3.34,18.9,18.9,0,0,0,81,21.81V22c0,14.56,18.32,37.33,18.32,37.33S119,36.39,119,22.66Zm-30.43-.53A11.43,11.43,0,1,1,99.84,33.72h0A11.42,11.42,0,0,1,88.57,22.13Z"/></svg>